<svg xmlns="http://www.w3.org/2000/svg" width="18.438" height="18.07" viewBox="0 0 18.438 18.07">
  <defs>
    <style>
      .cls-1 {
        fill: #fff;
        fill-rule: evenodd;
      }
    </style>
  </defs>
  <path id="Arrows.svg" class="cls-1" d="M966.938,3099.3l-0.694-.7a0.987,0.987,0,0,0-1.388,0L958,3105.46l-6.856-6.86a0.986,0.986,0,0,0-1.387,0l-0.694.7a0.974,0.974,0,0,0,0,1.38l8.237,8.24a0.99,0.99,0,0,0,1.4,0l8.238-8.24A0.976,0.976,0,0,0,966.938,3099.3Zm0,7.17-0.694-.69a0.97,0.97,0,0,0-1.388,0L958,3112.63l-6.856-6.85a0.968,0.968,0,0,0-1.387,0l-0.694.69a0.986,0.986,0,0,0,0,1.39l8.237,8.23a0.99,0.99,0,0,0,1.4,0l8.238-8.23A0.988,0.988,0,0,0,966.938,3106.47Z" transform="translate(-948.781 -3098.31)"/>
</svg>
