<svg xmlns="http://www.w3.org/2000/svg" width="99.469" height="51.06" viewBox="0 0 99.469 51.06">
  <defs>
    <style>
      .cls-1 {
        fill: #707070;
        fill-rule: evenodd;
      }
    </style>
  </defs>
  <path id="brand1.svg" class="cls-1" d="M476,6292.94l9.008,0.04v-27.96l-9.008.03v27.89Zm24.643-20.71a5.207,5.207,0,0,1,2.109-.22c0.57,0,1.045-.07,1.559-0.03,0.535,0.05,1.129-.08,1.644-0.02l1,0.04v-7.36l-0.574-.25a17.774,17.774,0,0,0-2.149-.29c-0.758-.07-1.632-0.1-2.607-0.1-3.458,0-6.085.95-7.807,2.81-1.69,1.83-1.821,3.73-1.821,7.39l-0.032,1.79-4.972-.03,0.032,7.01L492,6283v10.04l7.993-.03V6283l6.007-.03v-6.98h-6.007v-1.48C499.988,6272.76,500.442,6272.48,500.642,6272.23Zm-33.755,5.79a13.287,13.287,0,0,0-4.544-1.93,24.915,24.915,0,0,0-5.678-1.08c-11.543,0-14.265,6.24-14.564,11.02l-0.145.96,9.03-.03,0-1a2.684,2.684,0,0,1,1.256-2.39,7.37,7.37,0,0,1,4.145-.94c2.348,0,3.431.51,3.97,0.98,0.521,0.41,1.429.79,1.6,1.56a11.23,11.23,0,0,1,.041,1.52c0.01,0.32.021,0.95,0.034,1.31h-1.7c-6.322,0-10.962.66-14.19,2.52-1.377.8-1.278,1.33-2.108,2.46h26.954l-0.031-6.01a10.914,10.914,0,0,0-1-5.12A8.319,8.319,0,0,0,466.887,6278.02Zm-40.631-3.01c-2.8,0-5.763,1.75-8.16,3.6,0-.27-0.054-0.83-0.048-1.11,0.015-1.27-.028-3.44-0.028-4.77l0.057-8.69H409l0.011,28.94,9-.02,0.006-5.95a13.567,13.567,0,0,1,3.578-2.65,7.042,7.042,0,0,1,3.224-.83,5.6,5.6,0,0,1,1.843.25,2.018,2.018,0,0,1,.933.66,2.291,2.291,0,0,1,.347,1.11,15.912,15.912,0,0,1,.061,2.7v4.73l8.957,0.03v-5.56C436.963,6279.39,433.729,6275.01,426.256,6275.01ZM414.609,6315a10.235,10.235,0,0,1-3.038-.41,6.337,6.337,0,0,1-2.166-1.15,4.971,4.971,0,0,1-1.317-1.77,6.179,6.179,0,0,1-.486-2.25h2.09a3.8,3.8,0,0,0,.5,1.62,3.766,3.766,0,0,0,1.057,1.13,4.443,4.443,0,0,0,1.477.66,7.2,7.2,0,0,0,1.778.22,6.66,6.66,0,0,0,1.675-.2,3.982,3.982,0,0,0,1.287-.56,2.579,2.579,0,0,0,.823-0.87,2.384,2.384,0,0,0,.292-1.18,2.043,2.043,0,0,0-1.134-1.96,6.454,6.454,0,0,0-1.585-.63c-0.653-.19-1.456-0.38-2.4-0.58a17.21,17.21,0,0,1-2.385-.71,6.148,6.148,0,0,1-1.646-.94,3.558,3.558,0,0,1-.952-1.25,3.953,3.953,0,0,1-.31-1.61,4.024,4.024,0,0,1,.425-1.84,4.353,4.353,0,0,1,1.195-1.44,5.964,5.964,0,0,1,1.847-.95,8.1,8.1,0,0,1,2.385-.34,9.021,9.021,0,0,1,2.521.34,5.96,5.96,0,0,1,1.958.98,4.616,4.616,0,0,1,1.3,1.55,4.73,4.73,0,0,1,.511,2.07h-2.113q-0.324-2.97-4.078-2.97a4.978,4.978,0,0,0-2.822.68,2.105,2.105,0,0,0-.989,1.83,1.948,1.948,0,0,0,.182.89,1.594,1.594,0,0,0,.619.65,4.749,4.749,0,0,0,1.164.51q0.729,0.225,1.81.45c0.5,0.11,1,.22,1.518.34a12.528,12.528,0,0,1,1.51.43,8.843,8.843,0,0,1,1.39.61,4.759,4.759,0,0,1,1.148.87,3.785,3.785,0,0,1,.778,1.21,4.279,4.279,0,0,1,.283,1.63,4.341,4.341,0,0,1-.453,1.98,4.614,4.614,0,0,1-1.266,1.56,6.192,6.192,0,0,1-1.932,1.03A7.642,7.642,0,0,1,414.609,6315Zm22.432-15.04-5.032.03-0.031,14.97-1.983.09v-15.06l-4.966.03L425,6298h12.012Zm13.2,15.04a9.32,9.32,0,0,1-2.6-.31,5.5,5.5,0,0,1-1.783-.84,4.026,4.026,0,0,1-1.131-1.23,2.262,2.262,0,0,1-.406-0.91,12.7,12.7,0,0,1-.3-2.03c-0.037-.57-0.025-1.35-0.025-1.9v-9.74l1.956-.04v9.74a10.375,10.375,0,0,0,.287,2.69,3.809,3.809,0,0,0,.831,1.62,2.666,2.666,0,0,0,1.34.79,7.908,7.908,0,0,0,3.663-.01,2.706,2.706,0,0,0,1.334-.8c0.356-.39,1.346-0.93,1.531-1.62a11.792,11.792,0,0,0,.094-2.67L455,6297.97l2.006,0.03v9.78a16.643,16.643,0,0,1-.1,3.17,5.941,5.941,0,0,1-1.519,2.14,4.614,4.614,0,0,1-1.978,1.42A8.7,8.7,0,0,1,450.245,6315Zm26.67-8.59c0,5.53-2.756,8.55-8.345,8.55l-5.582.03,0.031-17.02,5.738,0.03C474.346,6298,476.915,6300.99,476.915,6306.41Zm-2.243,0a10.768,10.768,0,0,0-.284-2.58,4.653,4.653,0,0,0-.985-1.95,4.416,4.416,0,0,0-1.887-1.21,7.022,7.022,0,0,0-2.749-.71l-3.792.03v12.99h3.542a10.317,10.317,0,0,0,3.235-.62,3.667,3.667,0,0,0,1.645-1.29,4.692,4.692,0,0,0,.991-1.99A11.559,11.559,0,0,0,474.672,6306.41Zm11.35,8.52-2.018.03,0.032-16.92,1.923-.04Zm13.183-16.94a7.926,7.926,0,0,1,3.151.62,7.3,7.3,0,0,1,2.481,1.72,7.864,7.864,0,0,1,1.636,2.68,10.512,10.512,0,0,1,0,6.93,8.1,8.1,0,0,1-1.619,2.69,7.17,7.17,0,0,1-2.483,1.74,7.857,7.857,0,0,1-3.171.63,7.985,7.985,0,0,1-3.165-.62,7.22,7.22,0,0,1-2.491-1.74,7.8,7.8,0,0,1-1.627-2.68,10.7,10.7,0,0,1,0-6.97,7.868,7.868,0,0,1,1.643-2.67,7.324,7.324,0,0,1,2.491-1.72A8.123,8.123,0,0,1,499.205,6297.99Zm-0.011,15.14a5.573,5.573,0,0,0,2.256-.45,4.93,4.93,0,0,0,1.779-1.3,6.038,6.038,0,0,0,1.165-2.1,9.522,9.522,0,0,0,0-5.6,6.034,6.034,0,0,0-1.165-2.08,4.9,4.9,0,0,0-1.765-1.28,5.453,5.453,0,0,0-2.223-.45,5.634,5.634,0,0,0-2.263.45,5.114,5.114,0,0,0-1.789,1.3,6.05,6.05,0,0,0-1.174,2.08,8.578,8.578,0,0,0-.415,2.78,8.877,8.877,0,0,0,.409,2.8,6.08,6.08,0,0,0,1.161,2.1,4.974,4.974,0,0,0,1.772,1.3A5.547,5.547,0,0,0,499.194,6313.13Z" transform="translate(-407.594 -6264)"/>
</svg>
