<svg xmlns="http://www.w3.org/2000/svg" width="150.843" height="41.13" viewBox="0 0 150.843 41.13">
  <defs>
    <style>
      .cls-1 {
        fill: #707070;
        fill-rule: evenodd;
      }
    </style>
  </defs>
  <path id="brand3.svg" class="cls-1" d="M927.3,6278.35a4.275,4.275,0,1,1,4.231-4.27A4.26,4.26,0,0,1,927.3,6278.35Zm0-8a3.725,3.725,0,1,0,3.69,3.73A3.712,3.712,0,0,0,927.3,6270.35Zm-1.5,1.46a8.54,8.54,0,0,1,1.4-.1,2.321,2.321,0,0,1,1.5.37,1.194,1.194,0,0,1,.428.98,1.251,1.251,0,0,1-.822,1.16v0.02a1.17,1.17,0,0,1,.623.88c0.143,0.52.288,1.14,0.378,1.32h-1.075a5.835,5.835,0,0,1-.324-1.09,0.72,0.72,0,0,0-.753-0.76h-0.316v1.85H925.8v-4.63Zm1.04,2.02h0.413a0.713,0.713,0,0,0,.835-0.68,0.651,0.651,0,0,0-.774-0.65,3.22,3.22,0,0,0-.474.03v1.3ZM817.7,6292.9s-1.634-.7-2.927-1.14a2.024,2.024,0,0,1-.952-0.56,4.436,4.436,0,0,0-8.146-1.24l-0.187-.03a4.771,4.771,0,0,1,2.6-2.78,4.486,4.486,0,0,0-4.417-3.94,4.642,4.642,0,0,0-1.182.18,5.394,5.394,0,0,1,.794,2.69,5.074,5.074,0,0,1-1.319,3.36,6.026,6.026,0,1,0-10.622.15,5.087,5.087,0,0,1-1.485-3.51,5.559,5.559,0,0,1,.339-1.79,4.582,4.582,0,0,0-5.771,7.02,2.389,2.389,0,0,1-.808.43c-1.294.43-2.928,1.13-2.928,1.13h11.992l-0.023.03H817.7Zm-13.6-19.47c-0.232-3.07-1.781-4.93-3.1-7.31,0.976-11.47-3.476-14.33-3.476-14.33s-4.024,2.86-3.048,14.33c-1.321,2.38-2.871,4.24-3.1,7.31l3.674-1.45a9.616,9.616,0,0,0,2.681.93h0.014a6.948,6.948,0,0,0,2.683-.93Zm0,0c-0.232-3.07-1.781-4.93-3.1-7.31,0.976-11.47-3.476-14.33-3.476-14.33s-4.024,2.86-3.048,14.33c-1.321,2.38-2.871,4.24-3.1,7.31l3.674-1.45a9.616,9.616,0,0,0,2.681.93h0.014a6.948,6.948,0,0,0,2.683-.93Zm-3.989,3.06-0.932-2.73a3.537,3.537,0,0,1-1.212.65,3.611,3.611,0,0,1-1.224-.65l-0.934,2.73,1.055-1.15-0.66,4.21,1.109-1.06h0c0.092-.01.23,0.59,0.324,0.59,0.068,0,.193.64,0.265,0.65,0.069-.01.313-0.65,0.381-0.65,0.094,0,.232-0.6.324-0.59h0l1.109,1.06-0.66-4.21Zm26.5,16.07h-3.2l3.637-17.75h4.755c0.76,0,1.413.03,1.959,0.08a8.452,8.452,0,0,1,1.438.27,4.708,4.708,0,0,1,2.542,1.59,4.192,4.192,0,0,1,.808,2.56,6.685,6.685,0,0,1-.3,2.02,4.893,4.893,0,0,1-.929,1.69,5.741,5.741,0,0,1-1.63,1.32,8.9,8.9,0,0,1-2.383.87v0.06l3.9,7.29h-3.545l-3.52-6.87H828.01Zm1.969-9.59h1.234c0.588,0,1.111-.02,1.577-0.06a6.233,6.233,0,0,0,1.246-.22,4.084,4.084,0,0,0,1.968-1.12,2.819,2.819,0,0,0,.723-2.01,2.106,2.106,0,0,0-.288-1.11,1.681,1.681,0,0,0-.947-0.7,3.588,3.588,0,0,0-.81-0.16,10.824,10.824,0,0,0-1.25-.06h-2.336Zm20.861-8.49a8.733,8.733,0,0,1,2.789.43,5.6,5.6,0,0,1,3.526,3.41,8.21,8.21,0,0,1,.485,2.93,13.532,13.532,0,0,1-.217,2.29,13.817,13.817,0,0,1-.7,2.55,13.553,13.553,0,0,1-1.258,2.53,9.691,9.691,0,0,1-1.884,2.17,8.843,8.843,0,0,1-5.927,2.11,8.478,8.478,0,0,1-2.792-.44,5.647,5.647,0,0,1-2.144-1.28,5.722,5.722,0,0,1-1.38-2.13,8.088,8.088,0,0,1-.485-2.92,14.143,14.143,0,0,1,.214-2.3,14.362,14.362,0,0,1,.7-2.55,14.126,14.126,0,0,1,1.261-2.52,9.69,9.69,0,0,1,1.884-2.18A8.9,8.9,0,0,1,849.436,6274.48Zm-0.223,2.75a5.006,5.006,0,0,0-1.957.37,6.044,6.044,0,0,0-1.621,1.01,7.359,7.359,0,0,0-1.287,1.51,9.635,9.635,0,0,0-.933,1.84,11.581,11.581,0,0,0-.564,2.04,11.463,11.463,0,0,0-.191,2.06,5.365,5.365,0,0,0,.263,1.77,3.547,3.547,0,0,0,.754,1.29,3.117,3.117,0,0,0,1.2.77,4.674,4.674,0,0,0,1.589.26,5.172,5.172,0,0,0,1.955-.37,5.832,5.832,0,0,0,1.623-1.02,7.33,7.33,0,0,0,1.287-1.5,9.956,9.956,0,0,0,.932-1.85,11.323,11.323,0,0,0,.563-2.03,11.668,11.668,0,0,0,.192-2.07,4.19,4.19,0,0,0-1.017-3.05A3.735,3.735,0,0,0,849.213,6277.23Zm19.5,0a6.6,6.6,0,0,0-2.114.33,6.469,6.469,0,0,0-1.766.91,7.024,7.024,0,0,0-1.365,1.38,8.512,8.512,0,0,0-.978,1.74,9.617,9.617,0,0,0-.59,1.96,10.911,10.911,0,0,0-.2,2.07,5.816,5.816,0,0,0,.361,2.22,3.456,3.456,0,0,0,.991,1.39,3.605,3.605,0,0,0,1.476.71,7.492,7.492,0,0,0,1.805.21,11.535,11.535,0,0,0,2.16-.19,16.778,16.778,0,0,0,2.227-.59l-0.578,2.86a10.856,10.856,0,0,1-2.284.52,18.247,18.247,0,0,1-2.206.15,9.878,9.878,0,0,1-2.909-.41,6.008,6.008,0,0,1-2.262-1.25,5.616,5.616,0,0,1-1.472-2.18,8.568,8.568,0,0,1-.527-3.16,14.4,14.4,0,0,1,.256-2.65,13.132,13.132,0,0,1,.79-2.62,12.158,12.158,0,0,1,1.337-2.39,8.983,8.983,0,0,1,1.924-1.95,8.818,8.818,0,0,1,2.588-1.32,9.893,9.893,0,0,1,3.176-.49,15.981,15.981,0,0,1,2.134.17,13.388,13.388,0,0,1,2.238.52l-0.538,2.66a15.288,15.288,0,0,0-1.853-.45A10.679,10.679,0,0,0,868.717,6277.23Zm4.388,15.33,3.637-17.75h3.2l-1.616,7.9h0.054l7.272-7.9h3.966l-8.39,8.93,5.58,8.82h-3.688l-5.082-8.2H877.99l-1.679,8.2h-3.206Zm19.4-2.72h8.283l-0.551,2.72H888.749l3.636-17.75H903.4l-0.565,2.72h-7.8l-0.947,4.59h6.694l-0.551,2.72h-6.7Zm18.994,2.72h-3.2l3.088-15.03h-5.517l0.54-2.72h14.247l-0.553,2.72h-5.515Z" transform="translate(-780.688 -6251.78)"/>
</svg>
