<svg xmlns="http://www.w3.org/2000/svg" width="99.47" height="51.06" viewBox="0 0 99.47 51.06">
  <defs>
    <style>
      .cls-1 {
        fill: #707070;
        fill-rule: evenodd;
      }
    </style>
  </defs>
  <path id="brand6.svg" class="cls-1" d="M1475,6292.94l9.01,0.04v-27.96l-9.01.03v27.89Zm24.64-20.71a5.232,5.232,0,0,1,2.11-.22c0.57,0,1.05-.07,1.56-0.03,0.54,0.05,1.13-.08,1.64-0.02l1,0.04v-7.36l-0.57-.25a17.792,17.792,0,0,0-2.15-.29c-0.76-.07-1.63-0.1-2.61-0.1-3.45,0-6.08.95-7.8,2.81-1.69,1.83-1.83,3.73-1.83,7.39l-0.03,1.79-4.97-.03,0.03,7.01,4.97,0.03v10.04l8-.03V6283l6-.03v-6.98h-6v-1.48C1498.99,6272.76,1499.44,6272.48,1499.64,6272.23Zm-33.75,5.79a13.259,13.259,0,0,0-4.55-1.93,24.842,24.842,0,0,0-5.67-1.08c-11.55,0-14.27,6.24-14.57,11.02l-0.14.96,9.03-.03v-1a2.7,2.7,0,0,1,1.26-2.39,7.342,7.342,0,0,1,4.14-.94c2.35,0,3.43.51,3.97,0.98,0.52,0.41,1.43.79,1.61,1.56a11.6,11.6,0,0,1,.04,1.52c0.01,0.32.02,0.95,0.03,1.31h-1.7c-6.32,0-10.96.66-14.19,2.52-1.38.8-1.28,1.33-2.11,2.46h26.95l-0.03-6.01a10.855,10.855,0,0,0-1-5.12A8.305,8.305,0,0,0,1465.89,6278.02Zm-40.63-3.01c-2.81,0-5.77,1.75-8.16,3.6,0-.27-0.06-0.83-0.05-1.11,0.01-1.27-.03-3.44-0.03-4.77l0.06-8.69H1408l0.01,28.94,9-.02,0.01-5.95a13.606,13.606,0,0,1,3.58-2.65,7.014,7.014,0,0,1,3.22-.83,5.661,5.661,0,0,1,1.85.25,2.035,2.035,0,0,1,.93.66,2.377,2.377,0,0,1,.35,1.11,16.463,16.463,0,0,1,.06,2.7v4.73l8.95,0.03v-5.56C1435.96,6279.39,1432.73,6275.01,1425.26,6275.01ZM1413.61,6315a10.258,10.258,0,0,1-3.04-.41,6.252,6.252,0,0,1-2.16-1.15,4.956,4.956,0,0,1-1.32-1.77,6.161,6.161,0,0,1-.49-2.25h2.09a3.906,3.906,0,0,0,.5,1.62,3.781,3.781,0,0,0,1.05,1.13,4.524,4.524,0,0,0,1.48.66,7.231,7.231,0,0,0,1.78.22,6.73,6.73,0,0,0,1.68-.2,4.04,4.04,0,0,0,1.28-.56,2.641,2.641,0,0,0,.83-0.87,2.426,2.426,0,0,0,.29-1.18,2.211,2.211,0,0,0-.27-1.14,2.234,2.234,0,0,0-.87-0.82,6.475,6.475,0,0,0-1.58-.63c-0.66-.19-1.46-0.38-2.41-0.58a17.166,17.166,0,0,1-2.38-.71,6.113,6.113,0,0,1-1.65-.94,3.649,3.649,0,0,1-.95-1.25,4.235,4.235,0,0,1,.12-3.45,4.314,4.314,0,0,1,1.19-1.44,5.981,5.981,0,0,1,1.85-.95,8.046,8.046,0,0,1,2.38-.34,8.931,8.931,0,0,1,2.52.34,5.912,5.912,0,0,1,1.96.98,4.61,4.61,0,0,1,1.3,1.55,4.689,4.689,0,0,1,.51,2.07h-2.11q-0.33-2.97-4.08-2.97a4.978,4.978,0,0,0-2.82.68,2.106,2.106,0,0,0-.99,1.83,1.988,1.988,0,0,0,.18.89,1.6,1.6,0,0,0,.62.65,4.713,4.713,0,0,0,1.16.51c0.49,0.15,1.09.3,1.81,0.45,0.5,0.11,1,.22,1.52.34a12.476,12.476,0,0,1,1.51.43,8.722,8.722,0,0,1,1.39.61,4.77,4.77,0,0,1,1.15.87,3.707,3.707,0,0,1,.78,1.21,4.28,4.28,0,0,1,.28,1.63,4.365,4.365,0,0,1-.45,1.98,4.674,4.674,0,0,1-1.27,1.56,6.137,6.137,0,0,1-1.93,1.03A7.657,7.657,0,0,1,1413.61,6315Zm22.43-15.04-5.03.03-0.03,14.97-1.99.09v-15.06l-4.96.03L1424,6298h12.01Zm13.2,15.04a9.3,9.3,0,0,1-2.6-.31,5.55,5.55,0,0,1-1.78-.84,3.985,3.985,0,0,1-1.13-1.23,2.429,2.429,0,0,1-.41-0.91,13.415,13.415,0,0,1-.3-2.03c-0.03-.57-0.02-1.35-0.02-1.9v-9.74l1.95-.04v9.74a10.4,10.4,0,0,0,.29,2.69,3.865,3.865,0,0,0,.83,1.62,2.7,2.7,0,0,0,1.34.79,7.194,7.194,0,0,0,1.83.21,7.308,7.308,0,0,0,1.84-.22,2.717,2.717,0,0,0,1.33-.8c0.36-.39,1.35-0.93,1.53-1.62a11.515,11.515,0,0,0,.1-2.67l-0.04-9.77,2.01,0.03v9.78a17,17,0,0,1-.1,3.17,6.042,6.042,0,0,1-1.52,2.14,4.638,4.638,0,0,1-1.98,1.42A8.687,8.687,0,0,1,1449.24,6315Zm26.67-8.59c0,5.53-2.75,8.55-8.34,8.55l-5.58.03,0.03-17.02,5.74,0.03C1473.35,6298,1475.91,6300.99,1475.91,6306.41Zm-2.24,0a10.678,10.678,0,0,0-.28-2.58,4.684,4.684,0,0,0-.99-1.95,4.409,4.409,0,0,0-1.88-1.21,7.085,7.085,0,0,0-2.75-.71l-3.79.03v12.99h3.54a10.238,10.238,0,0,0,3.23-.62,3.655,3.655,0,0,0,1.65-1.29,4.784,4.784,0,0,0,.99-1.99A11.461,11.461,0,0,0,1473.67,6306.41Zm11.35,8.52-2.02.03,0.04-16.92,1.92-.04Zm13.19-16.94a7.939,7.939,0,0,1,3.15.62,7.418,7.418,0,0,1,2.48,1.72,7.775,7.775,0,0,1,1.63,2.68,9.83,9.83,0,0,1,.59,3.47,10.086,10.086,0,0,1-.58,3.46,8.156,8.156,0,0,1-1.62,2.69,7.14,7.14,0,0,1-2.48,1.74,7.869,7.869,0,0,1-3.17.63,8,8,0,0,1-3.17-.62,7.273,7.273,0,0,1-2.49-1.74,7.775,7.775,0,0,1-1.63-2.68,10.161,10.161,0,0,1-.58-3.48,9.943,9.943,0,0,1,.59-3.49,7.846,7.846,0,0,1,1.64-2.67,7.359,7.359,0,0,1,2.49-1.72A8.113,8.113,0,0,1,1498.21,6297.99Zm-0.02,15.14a5.6,5.6,0,0,0,2.26-.45,4.968,4.968,0,0,0,1.78-1.3,5.92,5.92,0,0,0,1.16-2.1,9.543,9.543,0,0,0,0-5.6,5.914,5.914,0,0,0-1.16-2.08,4.88,4.88,0,0,0-1.77-1.28,5.438,5.438,0,0,0-2.22-.45,5.63,5.63,0,0,0-2.26.45,5.126,5.126,0,0,0-1.79,1.3,5.931,5.931,0,0,0-1.17,2.08,8.547,8.547,0,0,0-.42,2.78,8.963,8.963,0,0,0,.41,2.8,6.079,6.079,0,0,0,1.16,2.1,5.02,5.02,0,0,0,1.77,1.3A5.547,5.547,0,0,0,1498.19,6313.13Z" transform="translate(-1406.59 -6264)"/>
</svg>
