<svg xmlns="http://www.w3.org/2000/svg" width="144.78" height="35.41" viewBox="0 0 144.78 35.41">
  <defs>
    <style>
      .cls-1 {
        fill: #707070;
        fill-rule: evenodd;
      }
    </style>
  </defs>
  <path id="brand5.svg" class="cls-1" d="M1259.25,6293.99l-4.55-.03-5.69.04c0-.45-0.02-1.31-0.01-1.76s0.04-.84.05-1.26l2.23-.01h0.01a0.656,0.656,0,0,0,.69-0.58l0.06-.84c-0.04-4.13-.05-7.96-0.03-12.81l-0.01-.79-0.78.04h-0.62l-0.1.27c-2.38,6.83-4.39,11.39-6.24,15.71-0.25.01-.57,0.01-0.94,0.02-0.64.01-1.42-.01-2.11-0.01-2.07-4.95-3.45-8.23-5.64-14.85l-0.4-1.15h-0.76l-0.41-.04-0.04.47c-0.06,3.7.07,5.81,0.03,7.58-0.04,2.18.04,4.34,0,6.52l0.06,0.46,0.61,0.02,2.37,0.05c0,0.86-.06,2.06-0.09,2.94l-5.33.03H1227l0.03-2.97,2.54-.07h0.08l0.08-.04a0.578,0.578,0,0,0,.35-0.54c0.04-5.55-.16-12.08-0.07-18.28l0.03-1.15-0.49.05-1.56-.05c0-.48.04-1.43,0.05-1.94,0-.49-0.02-1.5-0.02-1.96l9.94-.04c1.21,3.29,3.42,11.08,5.22,16.39l0.3,0.89,0.1,0.28h0.91l0.1-.28c0.78-2.2,1.61-4.57,2.43-6.92,1.23-3.5,2.95-7.57,3.96-10.39l9.01,0.03c0,0.46.02,1.61,0.02,2.09-0.01.51-.02,1.33-0.03,1.82h-2.51l-0.07.04a1,1,0,0,0-.48.94c0.03,3.08.07,5.77,0.08,9.2,0.01,3.2-.01,4.92.01,7.94l0.03,1.93,0.55-.01h2.42c0,0.86,0,2.11-.02,2.99Zm27.67-.03-4.32.04h-6.59c0-.91-0.03-2.07-0.01-2.97l1.97-.1a0.545,0.545,0,0,0,.41-0.23,0.537,0.537,0,0,0,.07-0.52c-0.07-.22-0.16-0.52-0.26-0.85-0.19-.63-0.4-1.33-0.57-1.75a0.732,0.732,0,0,0-.67-0.62l-7.64.02-0.33.22-0.07.32c-0.08.36-.18,0.76-0.28,1.17-0.16.62-.32,1.26-0.42,1.79l-0.09.46,0.47,0.03,2.39,0.06c0,0.88-.04,2.07-0.06,2.97h-9.93c0.01-.9.11-2.09,0.15-2.97l1.84-.06a0.71,0.71,0,0,0,.61-0.49c2.64-7.04,6.25-17.21,8.54-23.45,0.83-.06,2.57-0.03,5.06-0.03,1.33,3.86,2.9,8.91,4.42,13.47,1.23,3.67,2.41,7.24,3.42,10.18l0.08,0.26,0.27,0.02,1.65,0.13c0,0.88-.02,1.46-0.04,2.35Zm-14.03-19.72-0.09.29c-0.57,1.86-1.17,3.8-1.73,5.67l-0.79,1.82a8.575,8.575,0,0,0-.22,2.28l0.03-.3h5.85l0.68,0.03-0.67-2.04c-0.59-1.86-.54-2.05-1.2-4.27-0.32-1.06-.64-2.13-0.96-3.19l-0.09-.29h-0.81Zm31.32,18.23c-0.94-1.72-1.83-3.95-2.75-6.15l-0.37-.86c-0.57-1.37-1.11-2.51-2.3-2.51a8.731,8.731,0,0,0-1.39.01l-0.27.66-0.13.29-0.05,6.56,0.13,0.52,0.39,0.02,2.51-.02c-0.02.89-.02,2.1-0.02,2.99l-6.09.03-4.82-.06c0.02-.89-0.01-2.07-0.01-2.96l1.58,0.02a0.529,0.529,0,0,0,.51-0.53l-0.18-17.52,0.03-1.96-0.3-.02-1.65-.03c0-.93-0.02-3.05,0-3.95,3.6-.05,6.54-0.01,9.08-0.01,2.31,0,3.58.56,5.98,1.13,3.45,0.76,5.86,3.88,5.86,6.32,0,3.06-2.05,5.52-5.14,6.81l-0.26.1v0.79l0.23,0.11c1.53,0.73,2.46,2.68,3.99,5.89l0.49,1.02c0.41,0.93.78,1.66,1.57,1.73l1.08,0.17c0,0.43.08,0.94,0.07,1.38s-0.02,1.06-.02,1.51c-0.32,0-.28-0.02-0.66-0.02-0.57.01-.8,0.03-1.19,0.03-0.48,0-1.71.01-2.84,0.02-0.87.01-1.75-.05-2.22-0.04Zm-5.28-22.38a4.871,4.871,0,0,0-1.44.14l-0.28.09-0.29.33,0.08,9.65,0.12,0.45,0.32,0.23a5.729,5.729,0,0,0,1.21.06c2.91,0,4.74-2.21,4.74-5.27,0-3.18-1.95-5.68-4.46-5.68h0Zm22.23,23.83a22.569,22.569,0,0,1-6.04-.47c-0.29-2.24-.54-4.45-0.79-6.62l-0.27-.47c1.22-.26,2.71-0.48,3.81-0.63l1.06,3.78a1,1,0,0,0,.43.62,5.062,5.062,0,0,0,2.94.87,5.218,5.218,0,0,0,3.14-.96,3.123,3.123,0,0,0,1.15-2.55c0-2.4-1.33-2.89-4.52-4.09-4.73-1.78-7.13-4.41-7.13-7.79a7.929,7.929,0,0,1,2.67-5.88c1.81-1.65,4.83-2.74,8.52-2.74a16.226,16.226,0,0,1,5.11.81c0.22,2.29.63,4.66,0.79,6.99-1.04.16-2.43,0.26-3.57,0.39l-0.16.02-0.86-3.51a1.135,1.135,0,0,0-.27-0.49,4.056,4.056,0,0,0-2.36-1.12,4.687,4.687,0,0,0-2.72,1.17,3.36,3.36,0,0,0-1.28,2.7c0,2.36,1.12,2.86,4.98,4.2,4.67,1.62,6.66,3.83,6.66,7.42a7.964,7.964,0,0,1-2.89,6.32c-1.96,1.56-4.46,2.03-8.27,2.03h-0.13Zm-118.34-23.34a7.57,7.57,0,1,1-7.57-7.61A7.595,7.595,0,0,1,1202.82,6270.58Zm0,20.19a7.57,7.57,0,1,1-7.57-7.62A7.6,7.6,0,0,1,1202.82,6290.77Zm16.48-10.09a7.575,7.575,0,1,1-7.58-7.62A7.6,7.6,0,0,1,1219.3,6280.68Z" transform="translate(-1187.69 -6262.97)"/>
</svg>
