<svg xmlns="http://www.w3.org/2000/svg" width="163.531" height="39" viewBox="0 0 163.531 39">
  <defs>
    <style>
      .cls-1 {
        fill: #707070;
        fill-rule: evenodd;
      }
    </style>
  </defs>
  <path id="brand4.svg" class="cls-1" d="M1034.49,6273.99a7.487,7.487,0,0,0-2.63-1,6.97,6.97,0,0,0-2.39.87,7.27,7.27,0,0,0-3.18,2.22,6.58,6.58,0,0,0-1.8-1.65,7.046,7.046,0,0,0-3.41-1.44,6.848,6.848,0,0,0-4.25,1.87v-0.38l0.06-.48-0.89.03-2.21-.03-0.83.12,0.06,0.73-0.03,16.04,0.06,1.09,0.55,0.04,2.46-.06,0.9-.03v-1.2l0.06-9.71a3.643,3.643,0,0,1,.89-2.86,3.546,3.546,0,0,1,2.58-.98,3.019,3.019,0,0,1,2.34.97,4.081,4.081,0,0,1,1.18,2.77l0.06,9.78v1.23l0.46,0.06,2.46-.03h0.98v-1.29l-0.18-9.68a3.664,3.664,0,0,1,1.08-2.83,3.546,3.546,0,0,1,2.58-.98,3.048,3.048,0,0,1,2.34.97,4.2,4.2,0,0,1,1.21,2.8l-0.03,9.72v1.17l0.05,0.06,3.02,0.06,1.02,0.06-0.07-1.79-0.06-9.53a7.282,7.282,0,0,0-2.24-5.19A6.736,6.736,0,0,0,1034.49,6273.99Zm14.1-1.03a9.994,9.994,0,0,0-6.5,16.06,8.7,8.7,0,0,0,13.06,0c1.57-1.7,1.81-3.93,1.81-6.51s-0.24-4.68-1.81-6.38A9.137,9.137,0,0,0,1048.59,6272.96Zm3.64,13.47a5.013,5.013,0,0,1-7.23,0c-0.87-1.02-1.98-2.22-1.98-3.79s1.11-2.9,1.99-3.92a4.544,4.544,0,0,1,3.58-1.76,4.658,4.658,0,0,1,3.64,1.77,6.115,6.115,0,0,1,1.8,3.88A6.008,6.008,0,0,1,1052.23,6286.43Zm15.21-13.47a9.093,9.093,0,0,0-6.54,3.17c-1.57,1.7-1.9,3.86-1.9,6.44s0.33,4.75,1.91,6.45a8.781,8.781,0,0,0,6.5,2.95,8.929,8.929,0,0,0,6.56-2.95c1.57-1.7,1.99-3.83,1.99-6.41s-0.42-4.78-1.99-6.48A9.071,9.071,0,0,0,1067.44,6272.96Zm3.61,13.47a5.013,5.013,0,0,1-7.23,0,6.139,6.139,0,0,1-1.85-3.86,6.074,6.074,0,0,1,1.86-3.85,4.623,4.623,0,0,1,7.22.01c0.87,1.01,1.95,2.26,1.95,3.84S1071.92,6285.41,1071.05,6286.43Zm17.96-12.47a8.635,8.635,0,0,0-3.09-.97,6.629,6.629,0,0,0-3.34,1.4,6.01,6.01,0,0,0-.64.69l0.07-2.07-0.1-.04-0.92.03h-2.03l-0.89.06-0.06,2.07,0.03,15.79-0.06,1.01,1.17,0.03,1.74-.03h0.99l0.06-1.29,0.03-9.27c0-1.24.03-2.26,0.83-3.04a4.308,4.308,0,0,1,2.99-1.34,3.794,3.794,0,0,1,2.75,1.28,4.424,4.424,0,0,1,1.45,3.04v9.49l0.03,1.13,0.01,0.03,3.03-.09,0.95,0.03,0.03-1.7-0.03-9.52c0-2.36-1.17-3.73-2.65-5.17A6.469,6.469,0,0,0,1089.01,6273.96Zm15.23-.97a8.57,8.57,0,0,0-5.22,2.18l-0.07-.82,0.04-1.32-0.62-.03h-3.38v25.03l0.95-.03,2.59-.06,0.39,0.03,0.03-1.13-0.03-6.85a8.3,8.3,0,0,0,5.16,1.98,8.527,8.527,0,0,0,6.47-2.96,9.75,9.75,0,0,0,.01-12.87A8.584,8.584,0,0,0,1104.24,6272.99Zm-3.94,13.44a6.405,6.405,0,0,1,0-7.71,4.639,4.639,0,0,1,3.62-1.76,4.9,4.9,0,0,1,3.69,1.78,6.122,6.122,0,0,1,0,7.67,4.706,4.706,0,0,1-3.69,1.56A4.467,4.467,0,0,1,1100.3,6286.43Zm15.47-12.43-0.73-.03-0.03,2.51,0.03,13.72-0.03.73,0.73,0.06,1.68,0.03,0.55-.06v-16.9l-0.17-.09Zm-0.16-6.02h-0.58v4l0.55-.03,1.66,0.09,0.8-.03-0.1-1.26,0.04-2.2v-0.45l-0.06-.03Zm18.62,17.04-0.75.03v0.26a4.225,4.225,0,0,1-1.51,1.93,3.854,3.854,0,0,1-2.34.73,5.023,5.023,0,0,1-3.95-1.56,5.2,5.2,0,0,1,0-7.67,4.534,4.534,0,0,1,1.6-1.14,5.812,5.812,0,0,1,2.35-.42,3.81,3.81,0,0,1,2.34.73,4.225,4.225,0,0,1,1.51,1.93l0.1,0.2,0.58-.03h2.69l1.01-.04-0.27-.63a8.244,8.244,0,0,0-3.05-4.25,9.874,9.874,0,0,0-5.52-2.13,8.72,8.72,0,0,0-6.35,3.17,9.078,9.078,0,0,0,.01,12.89,8.635,8.635,0,0,0,6.43,2.92,9.359,9.359,0,0,0,5.44-1.89,8.217,8.217,0,0,0,3.04-4.24l0.4-.79-1.14-.07Zm-28.29,16.37a1.463,1.463,0,0,1-1.13.56,1.566,1.566,0,0,1-.7-0.15,1.447,1.447,0,0,1-.51-0.41,1.7,1.7,0,0,1-.32-0.63,3.021,3.021,0,0,1-.1-0.82,2.65,2.65,0,0,1,.13-0.87,1.758,1.758,0,0,1,.35-0.65,1.519,1.519,0,0,1,.53-0.42,1.592,1.592,0,0,1,.66-0.14,1.626,1.626,0,0,1,.59.1,1.676,1.676,0,0,1,.5.29v-1.78h0.7v5.38h-0.7v-0.46Zm0-.66v-1.85a1.433,1.433,0,0,0-1.05-.47,0.826,0.826,0,0,0-.72.38,1.97,1.97,0,0,0-.27,1.15,1.927,1.927,0,0,0,.26,1.09,0.794,0.794,0,0,0,.7.37,0.947,0.947,0,0,0,.56-0.17A1.872,1.872,0,0,0,1105.94,6300.73Zm6.45,1.22a2.22,2.22,0,0,1-.79-0.14,1.8,1.8,0,0,1-.61-0.4,1.963,1.963,0,0,1-.39-0.64,2.645,2.645,0,0,1-.14-0.87,2.525,2.525,0,0,1,.14-0.85,1.7,1.7,0,0,1,.38-0.64,1.5,1.5,0,0,1,.58-0.41,2.042,2.042,0,0,1,.75-0.14,1.889,1.889,0,0,1,.77.14,1.625,1.625,0,0,1,.59.4,1.921,1.921,0,0,1,.37.64,2.548,2.548,0,0,1,.13.86v0.17h-2.97a1.715,1.715,0,0,0,.12.59,1.287,1.287,0,0,0,.25.41,1.152,1.152,0,0,0,.37.25,1.33,1.33,0,0,0,.45.08,1.408,1.408,0,0,0,.35-0.05,1.07,1.07,0,0,0,.31-0.13,0.919,0.919,0,0,0,.22-0.22,0.561,0.561,0,0,0,.09-0.31h0.74a1.392,1.392,0,0,1-.19.54,1.714,1.714,0,0,1-.37.39,1.643,1.643,0,0,1-.52.24A2.181,2.181,0,0,1,1112.39,6301.95Zm1.04-2.43a1.379,1.379,0,0,0-.39-0.83,1.011,1.011,0,0,0-.73-0.28,1.226,1.226,0,0,0-.39.06,0.933,0.933,0,0,0-.33.21,1.3,1.3,0,0,0-.25.35,2.176,2.176,0,0,0-.14.49h2.23Zm5.51,2.43c-1.07,0-1.63-.42-1.69-1.26h0.7c0,0.47.33,0.71,0.98,0.71a1.479,1.479,0,0,0,.39-0.05,0.727,0.727,0,0,0,.28-0.13,0.614,0.614,0,0,0,.17-0.19,0.542,0.542,0,0,0,.06-0.25,0.447,0.447,0,0,0-.05-0.22,0.287,0.287,0,0,0-.17-0.15,1.425,1.425,0,0,0-.34-0.13c-0.15-.05-0.35-0.1-0.59-0.16s-0.43-.12-0.6-0.17a1.644,1.644,0,0,1-.42-0.21,0.7,0.7,0,0,1-.24-0.3,1.169,1.169,0,0,1-.08-0.45,0.988,0.988,0,0,1,.1-0.45,1.034,1.034,0,0,1,.3-0.36,1.326,1.326,0,0,1,.46-0.23,2,2,0,0,1,.61-0.09c1.04,0,1.57.37,1.58,1.09h-0.69c-0.03-.36-0.3-0.54-0.84-0.54a1.655,1.655,0,0,0-.32.03,1.079,1.079,0,0,0-.27.1,0.523,0.523,0,0,0-.17.16,0.428,0.428,0,0,0-.06.22,0.5,0.5,0,0,0,.03.19,0.269,0.269,0,0,0,.14.14,1.556,1.556,0,0,0,.32.12c0.14,0.04.34,0.09,0.59,0.15s0.44,0.12.62,0.18a1.8,1.8,0,0,1,.44.22,0.786,0.786,0,0,1,.26.32,1.1,1.1,0,0,1,.08.47,1.009,1.009,0,0,1-.11.49,1.165,1.165,0,0,1-.31.39,1.481,1.481,0,0,1-.5.26A1.947,1.947,0,0,1,1118.94,6301.95Zm5.45-4.73h-0.69v-0.75h0.69v0.75Zm0,4.63h-0.69v-3.89h0.69v3.89Zm6.94-.3a1.6,1.6,0,0,1-1.72,1.88,2.324,2.324,0,0,1-.67-0.08,1.5,1.5,0,0,1-.51-0.23,1.128,1.128,0,0,1-.32-0.37,1.181,1.181,0,0,1-.11-0.5h0.73c0,0.43.28,0.64,0.86,0.64a1.51,1.51,0,0,0,.44-0.06,0.648,0.648,0,0,0,.33-0.21,1,1,0,0,0,.2-0.4,2.312,2.312,0,0,0,.07-0.64v-0.19a1.463,1.463,0,0,1-1.13.56,1.537,1.537,0,0,1-.7-0.15,1.447,1.447,0,0,1-.51-0.41,1.7,1.7,0,0,1-.32-0.63,3.021,3.021,0,0,1-.1-0.82,2.65,2.65,0,0,1,.13-0.87,1.758,1.758,0,0,1,.35-0.65,1.519,1.519,0,0,1,.53-0.42,1.592,1.592,0,0,1,.66-0.14,1.626,1.626,0,0,1,.59.1,1.809,1.809,0,0,1,.5.29v-0.29h0.7v3.59Zm-0.7-.82v-1.85a1.45,1.45,0,0,0-1.05-.47,0.826,0.826,0,0,0-.72.38,1.977,1.977,0,0,0-.26,1.15,1.932,1.932,0,0,0,.25,1.09,0.794,0.794,0,0,0,.7.37,1,1,0,0,0,.57-0.17A1.993,1.993,0,0,0,1130.63,6300.73Zm4.7-2.28a1.6,1.6,0,0,1,.55-0.44,1.381,1.381,0,0,1,.62-0.15,1.228,1.228,0,0,1,1.34,1.44v2.55h-0.71v-2.51a1.709,1.709,0,0,0-.04-0.42,0.8,0.8,0,0,0-.13-0.28,0.482,0.482,0,0,0-.22-0.15,1.159,1.159,0,0,0-.34-0.05,1.466,1.466,0,0,0-1.07.62v2.79h-0.7v-3.89h0.7v0.49ZM983.5,6293.57a9.829,9.829,0,0,0,10.437-6.32c0.021-.05.04-0.11,0.06-0.17a0.207,0.207,0,0,0-.078.01,5.459,5.459,0,0,1-6.993-6.77,10.752,10.752,0,0,1,8.449-10.33,21.45,21.45,0,0,1,4.74-.54,21,21,0,0,1,5.09.63,17.746,17.746,0,0,0-30.72,11.85,17.242,17.242,0,0,0,3.224,10.05c0.451,0.2.911,0.39,1.38,0.56A20.625,20.625,0,0,0,983.5,6293.57Zm20.315-13.65a9.872,9.872,0,0,0-10.688-3.35,5.514,5.514,0,0,1,3.455,2.08c0.194,0.15.394,0.3,0.576,0.46a10.66,10.66,0,0,1,2.065,13.23,21.13,21.13,0,0,1-2.817,3.8,20.811,20.811,0,0,1-3.886,3.27,17.713,17.713,0,0,0,15.365-9.39,19.6,19.6,0,0,0-1.72-6.26A19.4,19.4,0,0,0,1003.81,6279.92Zm2.59-8.42a20.113,20.113,0,0,0-10.794-.5,9.756,9.756,0,0,0-7.347,7.11,5.433,5.433,0,0,1,1.559-1.09,10.832,10.832,0,0,1,1.681-.95,10.952,10.952,0,0,1,13.151,3.22,21.385,21.385,0,0,1,2.47,4.03,20.715,20.715,0,0,1,1.57,4.94,17.093,17.093,0,0,0,1.2-6.33A17.286,17.286,0,0,0,1006.4,6271.5Zm-10.771,23.94a20.054,20.054,0,0,0,2.674-3.61,9.6,9.6,0,0,0-.662-10.63,5.194,5.194,0,0,1,.056.73,5.386,5.386,0,0,1-2.208,4.34c-0.071.07-.148,0.13-0.224,0.2a10.744,10.744,0,0,1-.347,1.14,10.891,10.891,0,0,1-11.548,6.99,20.868,20.868,0,0,1-4.362-1,17.745,17.745,0,0,0,11.594,5.74A19.981,19.981,0,0,0,995.629,6295.44Z" transform="translate(-974.469 -6264.44)"/>
</svg>
