<svg xmlns="http://www.w3.org/2000/svg" width="20.03" height="16.06" viewBox="0 0 20.03 16.06">
  <defs>
    <style>
      .cls-1 {
        fill: #fff;
        fill-rule: evenodd;
      }
    </style>
  </defs>
  <path id="Google.svg" class="cls-1" d="M1007.02,7994.97h-5.04c-2.276,0-4.416,1.88-4.416,3.82a3.611,3.611,0,0,0,3.866,3.56c0.16,0,.31,0,0.47-0.01a1.959,1.959,0,0,0-.26.92,1.848,1.848,0,0,0,.69,1.35c-0.29,0-.57.01-0.88,0.01-2.814,0-5.45,1.71-5.45,3.51,0,1.77,2.844,2.91,5.66,2.91,3.21,0,5.29-1.76,5.29-3.53,0-1.43-.74-2.28-2.08-3.2a3.193,3.193,0,0,1-1.34-1.52c0-.53.16-0.79,0.98-1.41a3.246,3.246,0,0,0,1.43-2.56,2.91,2.91,0,0,0-1.64-2.84l2.67,0.03Zm-1.74,12.29a0.684,0.684,0,0,0-.22.6c0,1.44-1.06,2.15-3.38,2.15-1.946,0-3.663-.95-3.663-2.38,0-1.4,2.023-2.57,3.973-2.55a3.961,3.961,0,0,1,1.26.2c1.05,0.71,1.81,1.11,2.03,1.92m-3.12-5.35c-1.31-.03-2.547-1.41-2.774-3.07s0.654-2.94,1.954-2.9a3.32,3.32,0,0,1,2.78,3.04c0.22,1.66-.65,2.97-1.96,2.93m9.83-2.92v-3.96H1011v4.02l-4.01.03,0.06,0.98,3.98-.03-0.03,4.05,0.99-.03-0.03-3.99,4.04-.03,0.03-1.04h-4.04Z" transform="translate(-996 -7994.97)"/>
</svg>
