<svg xmlns="http://www.w3.org/2000/svg" width="43.093" height="43.97" viewBox="0 0 43.093 43.97">
  <defs>
    <style>
      .cls-1 {
        fill: #ffe600;
        fill-rule: evenodd;
      }
    </style>
  </defs>
  <path id="Icon6.svg" class="cls-1" d="M674.085,1837.99l2.891,24.55-3.244.38L671.149,1841H643.782l-2.583,21.92-3.244-.38,2.891-24.55h33.239ZM647,1842.95h20.97l0.042,3.04-21.012.08v-3.12Zm0.025,6.04h21.015l-0.031,3.03-21.016-.04Zm0,5.99h20.984v3.03l-21.016.03Zm-0.063,5h21.047l0.031,3.06-21.047-.03Zm30.9,6.06-41.032-.06a1.053,1.053,0,0,0-.784,1.55l4.477,13.13a2.046,2.046,0,0,0,1.811,1.31H672.6a2.047,2.047,0,0,0,1.812-1.31l4.54-13.26a1.053,1.053,0,0,0-1-1.42M663,1870.97h-11.04l0.031-3H662.97Z" transform="translate(-635.938 -1838)"/>
</svg>
