<svg class="portfolio-question-scroll__svg" width="28.625" height="32.72" viewBox="0 0 28.625 32.72">
					<path fill="#fff" fill-rule="evenodd" d="M406.912,4277.61a14.325,14.325,0,1,0,14.322,14.33,14.329,14.329,0,0,0-14.322-14.33m0,25.84a11.51,11.51,0,1,1,11.509-11.51,11.515,11.515,0,0,1-11.509,11.51m13.515-20.75a6.072,6.072,0,0,0,.807-3.04,6.136,6.136,0,0,0-11-3.75,16.381,16.381,0,0,1,10.189,6.79m-16.842-6.79a6.138,6.138,0,0,0-10.191,6.79,16.38,16.38,0,0,1,10.191-6.79m1.28,8.07h2.181l0.045,10h-2.226v-10Zm2,7.96h6.183v2.04h-6.138Z" transform="translate(-392.594 -4273.53)"/>
				</svg>