<svg xmlns="http://www.w3.org/2000/svg" width="17.875" height="14.53" viewBox="0 0 17.875 14.53">
  <defs>
    <style>
      .cls-1 {
        fill: #fff;
        fill-rule: evenodd;
      }
    </style>
  </defs>
  <path id="Icon16.svg" class="cls-1" d="M659.943,5408.22a6.837,6.837,0,0,1-2.106.58,3.664,3.664,0,0,0,1.612-2.03,7.247,7.247,0,0,1-2.328.89,3.668,3.668,0,0,0-6.344,2.51,3.861,3.861,0,0,0,.092.84,10.418,10.418,0,0,1-7.554-3.83,3.6,3.6,0,0,0-.5,1.84,3.654,3.654,0,0,0,1.634,3.05,3.708,3.708,0,0,1-1.661-.45,0.268,0.268,0,0,0,0,.04,3.675,3.675,0,0,0,2.943,3.6,3.835,3.835,0,0,1-.967.12,3.946,3.946,0,0,1-.691-0.06,3.673,3.673,0,0,0,3.427,2.55,7.376,7.376,0,0,1-4.553,1.57,8.386,8.386,0,0,1-.877-0.05,10.469,10.469,0,0,0,5.62,1.64,10.363,10.363,0,0,0,10.436-10.43c0-.16,0-0.32-0.011-0.48a7.277,7.277,0,0,0,1.831-1.9" transform="translate(-642.063 -5406.5)"/>
</svg>
