<svg xmlns="http://www.w3.org/2000/svg" width="38.66" height="41.03" viewBox="0 0 38.66 41.03">
  <defs>
    <style>
      .cls-1 {
        fill: #ffe600;
        fill-rule: evenodd;
      }
    </style>
  </defs>
  <path id="Icon9.svg" class="cls-1" d="M1252.75,1846.5a5.47,5.47,0,1,0,5.47-5.47,5.471,5.471,0,0,0-5.47,5.47m11.61,4.81a5.47,5.47,0,1,0,5.47-5.47,5.465,5.465,0,0,0-5.47,5.47m7.54,11.6a2.735,2.735,0,1,0,2.73-2.73,2.736,2.736,0,0,0-2.73,2.73m-4.81,11.61a2.735,2.735,0,1,0,2.74-2.74,2.736,2.736,0,0,0-2.74,2.74m-11.6,4.8a2.735,2.735,0,1,0,2.73-2.73,2.736,2.736,0,0,0-2.73,2.73m-11.61-4.8a2.735,2.735,0,1,0,2.74-2.74,2.736,2.736,0,0,0-2.74,2.74m-1.37-23.21a4.105,4.105,0,1,0,4.11-4.1,4.108,4.108,0,0,0-4.11,4.1m-3.78,11.6a3.08,3.08,0,1,0,3.08-3.08,3.081,3.081,0,0,0-3.08,3.08" transform="translate(-1238.72 -1841.03)"/>
</svg>
