<svg xmlns="http://www.w3.org/2000/svg" width="42.53" height="45" viewBox="0 0 42.53 45">
  <defs>
    <style>
      .cls-1 {
        fill: #ffe600;
        fill-rule: evenodd;
      }
    </style>
  </defs>
  <path id="Icon8.svg" class="cls-1" d="M1076.14,1863.87a8.683,8.683,0,0,1,3.11-11.71l-4.33-7.66a8.2,8.2,0,0,1-4.22,1.16,8.493,8.493,0,0,1-8.38-8.61h-8.66a8.628,8.628,0,0,1-1.12,4.32,8.316,8.316,0,0,1-11.49,3.11l-4.33,7.66a8.4,8.4,0,0,1,3.09,3.14,8.685,8.685,0,0,1-3.08,11.7l4.33,7.66a8.178,8.178,0,0,1,4.19-1.15,8.49,8.49,0,0,1,8.38,8.57h8.67a8.483,8.483,0,0,1,1.12-4.28,8.31,8.31,0,0,1,11.46-3.12l4.34-7.66a8.416,8.416,0,0,1-3.08-3.13m-18.16,4.8a9.117,9.117,0,1,1,8.93-9.12,9.017,9.017,0,0,1-8.93,9.12" transform="translate(-1036.72 -1837.06)"/>
</svg>
