<svg xmlns="http://www.w3.org/2000/svg" width="32.189" height="32.19" viewBox="0 0 32.189 32.19">
  <defs>
    <style>
      .cls-1 {
        fill: #fff;
        fill-rule: evenodd;
      }
    </style>
  </defs>
  <path id="Icon12.svg" class="cls-1" d="M1006.87,4274.47a16.1,16.1,0,1,0,16.1,16.09,16.089,16.089,0,0,0-16.1-16.09m-6.03,16.09a6.035,6.035,0,1,1,6.03,6.04,6.03,6.03,0,0,1-6.03-6.04m19.04,5.4h0l-5.57-2.31a8.106,8.106,0,0,0,0-6.17l3.83-1.59,1.74-.72a14.136,14.136,0,0,1,0,10.79m-7.62-18.41h0l-2.31,5.58a8.081,8.081,0,0,0-6.16,0l-1.08-2.62-1.23-2.96a14.111,14.111,0,0,1,10.78,0m-18.4,7.62,2.963,1.23,2.615,1.08a8.094,8.094,0,0,0,0,6.17l-5.576,2.31a14.136,14.136,0,0,1,0-10.79m7.624,18.41,0.72-1.74,1.59-3.84a8.081,8.081,0,0,0,6.16,0l2.31,5.58a14.111,14.111,0,0,1-10.78,0" transform="translate(-990.781 -4274.47)"/>
</svg>
