<svg xmlns="http://www.w3.org/2000/svg" width="45" height="35.94" viewBox="0 0 45 35.94">
  <defs>
    <style>
      .cls-1 {
        fill: #ffe600;
        fill-rule: evenodd;
      }
    </style>
  </defs>
  <path id="Icon10.svg" class="cls-1" d="M1479.01,1865.03l-5.97-11.04-8.04.03v-5.27a3.1,3.1,0,0,0-3.13-2.76h-25.14a2.769,2.769,0,0,0-2.7,2.83l-0.03,22.06,2.61,2.11,3.88,0.03a8.27,8.27,0,0,0-.97,3.39,5.59,5.59,0,0,0,11.18,0,8.164,8.164,0,0,0-.59-3.42l15.46,0.03a8.054,8.054,0,0,0-.9,3.39,5.585,5.585,0,0,0,11.17,0,8.133,8.133,0,0,0-.81-3.39l3.98-.03v-7.96Zm-13.94-1.04-0.03-6.93,5.01-.06,3.9,6.99h-8.88Z" transform="translate(-1434 -1846)"/>
</svg>
