<svg xmlns="http://www.w3.org/2000/svg" width="9.657" height="9.85" viewBox="0 0 9.657 9.85">
  <defs>
    <style>
      .cls-1 {
        fill: #fff;
        fill-rule: evenodd;
      }
    </style>
  </defs>
  <path id="LeftArrow.svg" class="cls-1" d="M931.007,6394.48l0.369-.37a0.512,0.512,0,0,0,0-.73l-3.652-3.66,3.652-3.65a0.524,0.524,0,0,0,0-.74l-0.369-.37a0.53,0.53,0,0,0-.739,0l-4.388,4.39a0.519,0.519,0,0,0-.151.37,0.547,0.547,0,0,0,.152.38l4.387,4.38A0.512,0.512,0,0,0,931.007,6394.48Zm-3.82,0,0.369-.37a0.514,0.514,0,0,0,0-.73l-3.652-3.66,3.652-3.65a0.526,0.526,0,0,0,0-.74l-0.369-.37a0.53,0.53,0,0,0-.739,0l-4.389,4.39a0.523,0.523,0,0,0-.151.37,0.543,0.543,0,0,0,.152.38l4.388,4.38A0.512,0.512,0,0,0,927.187,6394.48Z" transform="translate(-921.906 -6384.81)"/>
</svg>
