<svg xmlns="http://www.w3.org/2000/svg" width="9.625" height="9.85" viewBox="0 0 9.625 9.85">
  <defs>
    <style>
      .cls-1 {
        fill: #fff;
        fill-rule: evenodd;
      }
    </style>
  </defs>
  <path id="RightArrow.svg" class="cls-1" d="M984.461,6384.98l-0.369.37a0.526,0.526,0,0,0,0,.74l3.652,3.65-3.652,3.66a0.526,0.526,0,0,0,0,.74l0.37,0.36a0.512,0.512,0,0,0,.739,0l4.387-4.38a0.537,0.537,0,0,0,0-.75l-4.387-4.39A0.53,0.53,0,0,0,984.461,6384.98Zm3.82,0-0.369.37a0.526,0.526,0,0,0,0,.74l3.653,3.65-3.652,3.66a0.512,0.512,0,0,0,0,.73l0.369,0.37a0.512,0.512,0,0,0,.739,0l4.388-4.38a0.53,0.53,0,0,0,.152-0.38,0.521,0.521,0,0,0-.153-0.37l-4.388-4.39A0.53,0.53,0,0,0,988.281,6384.98Z" transform="translate(-983.938 -6384.84)"/>
</svg>
